<svg width="37" height="38" viewBox="0 0 37 38" xmlns="http://www.w3.org/2000/svg">
<g id="Icons">
<path id="Vector" d="M3.14185 34.4743C3.14185 27.7072 8.62763 22.2214 15.3947 22.2214C22.1618 22.2214 27.6475 27.7072 27.6475 34.4743H3.14185ZM15.3947 20.6898C10.3174 20.6898 6.20506 16.5774 6.20506 11.5002C6.20506 6.42291 10.3174 2.31055 15.3947 2.31055C20.472 2.31055 24.5843 6.42291 24.5843 11.5002C24.5843 16.5774 20.472 20.6898 15.3947 20.6898ZM26.6716 24.1102C31.3972 25.3179 34.9501 29.4559 35.2804 34.4743H30.7107C30.7107 30.4771 29.1794 26.8375 26.6716 24.1102ZM23.5736 20.6238C26.0743 18.3805 27.6475 15.1241 27.6475 11.5002C27.6475 9.32937 27.083 7.29042 26.0928 5.52212C29.6008 6.22222 32.2423 9.3171 32.2423 13.0318C32.2423 17.2628 28.8154 20.6898 24.5843 20.6898C24.2417 20.6898 23.9043 20.6673 23.5736 20.6238Z"/>
</g>
</svg>
