<svg width="27" height="27" viewBox="0 0 27 27" fill="none" xmlns="http://www.w3.org/2000/svg">
<g id="Icons">
<path id="Vector" d="M5.08335 24.2301H22.2579C22.8508 24.2301 23.3314 23.7496 23.3314 23.1567V3.83531C23.3314 3.24249 22.8508 2.7619 22.2579 2.7619H5.08335C4.49051 2.7619 4.00994 3.24249 4.00994 3.83531V23.1567C4.00994 23.7496 4.49051 24.2301 5.08335 24.2301ZM16.8909 7.05555H19.0377V9.20237C19.0377 12.1665 16.6348 14.5694 13.6706 14.5694C10.7065 14.5694 8.30359 12.1665 8.30359 9.20237V7.05555H10.4504V9.20237C10.4504 10.9808 11.8922 12.4226 13.6706 12.4226C15.4492 12.4226 16.8909 10.9808 16.8909 9.20237V7.05555Z"/>
</g>
</svg>
