<svg width="32" height="31" viewBox="0 0 32 31" xmlns="http://www.w3.org/2000/svg">
<path d="M10.094 26.3871L3.38965 27.8769L4.8795 21.1726C3.92872 19.3946 3.38965 17.3633 3.38965 15.2061C3.38965 8.2082 9.06257 2.53528 16.0605 2.53528C23.0583 2.53528 28.7313 8.2082 28.7313 15.2061C28.7313 22.204 23.0583 27.8769 16.0605 27.8769C13.9033 27.8769 11.872 27.3379 10.094 26.3871ZM10.4609 23.7095L11.289 24.1524C12.7439 24.9303 14.3696 25.3428 16.0605 25.3428C21.6588 25.3428 26.1971 20.8045 26.1971 15.2061C26.1971 9.60778 21.6588 5.06945 16.0605 5.06945C10.4622 5.06945 5.92382 9.60778 5.92382 15.2061C5.92382 16.897 6.33624 18.5227 7.11423 19.9776L7.55703 20.8056L6.72735 24.5392L10.4609 23.7095Z"/>
</svg>
