<svg width="37" height="38" viewBox="0 0 37 38" xmlns="http://www.w3.org/2000/svg">
<g id="Icons">
<path id="Vector" d="M18.4594 34.5071C10.0005 34.5071 3.14331 27.6498 3.14331 19.191C3.14331 10.7322 10.0005 3.875 18.4594 3.875C26.9181 3.875 33.7754 10.7322 33.7754 19.191C33.7754 27.6498 26.9181 34.5071 18.4594 34.5071ZM13.6963 20.9843L13.7157 20.972C14.6036 23.9033 15.0475 25.3691 15.0475 25.3691C15.2195 25.8446 15.4559 25.9295 15.7428 25.8907C16.0295 25.8518 16.1817 25.6967 16.3689 25.5161C16.3689 25.5161 16.9759 24.9303 18.1898 23.7588L22.0968 26.6497C22.8087 27.043 23.3227 26.84 23.4994 25.9879L26.0385 14.0087C26.3188 12.8937 25.8272 12.4465 24.9626 12.8005L10.0554 18.5586C9.03843 18.9674 9.04334 19.5364 9.87027 19.7901L13.6963 20.9843Z"/>
</g>
</svg>
