<svg width="61" height="61" viewBox="0 0 61 61" fill="none" xmlns="http://www.w3.org/2000/svg">
<g id="Frame" clip-path="url(#clip0_101_857)">
<g id="Mask group">
<mask id="mask0_101_857" style="mask-type:luminance" maskUnits="userSpaceOnUse" x="0" y="0" width="61" height="61">
<g id="Group">
<path id="Vector" d="M60.4037 30.3493C60.4037 13.7501 46.9474 0.293823 30.3482 0.293823C13.749 0.293823 0.292725 13.7501 0.292725 30.3493C0.292725 46.9485 13.749 60.4048 30.3482 60.4048C46.9474 60.4048 60.4037 46.9485 60.4037 30.3493Z" fill="white"/>
</g>
</mask>
<g mask="url(#mask0_101_857)">
<g id="Group_2">
<path id="Vector_2" d="M60.4037 0.293945H0.292725V60.405H60.4037V0.293945Z" fill="#EDD75A"/>
<path id="Vector_3" d="M15.3624 46.0634L53.475 58.447C58.7373 60.1568 64.3892 57.2769 66.0991 52.0147L78.4826 13.902C80.1924 8.63978 77.3126 2.9878 72.0503 1.27799L33.9377 -11.1056C28.6754 -12.8154 23.0235 -9.93555 21.3136 -4.67329L8.93009 33.4394C7.22028 38.7016 10.1001 44.3536 15.3624 46.0634Z" fill="#0C8F8F"/>
<g id="Group_3">
<path id="Vector_4" d="M32.2991 32.7006C35.8385 33.8893 39.1455 33.4245 42.2201 31.3063" stroke="white" stroke-width="1.66975" stroke-linecap="round"/>
<path id="Vector_5" d="M27.2358 26.6674C27.1075 25.7541 26.4482 25.0919 25.7633 25.1881C25.0784 25.2844 24.6272 26.1027 24.7556 27.0159C24.8839 27.9291 25.5432 28.5914 26.2281 28.4951C26.913 28.3989 27.3642 27.5806 27.2358 26.6674Z" fill="white"/>
<path id="Vector_6" d="M47.0781 23.8788C46.9498 22.9656 46.2905 22.3034 45.6056 22.3996C44.9207 22.4959 44.4695 23.3142 44.5979 24.2274C44.7262 25.1406 45.3855 25.8029 46.0704 25.7066C46.7553 25.6104 47.2065 24.792 47.0781 23.8788Z" fill="white"/>
</g>
</g>
</g>
</g>
</g>
<defs>
<clipPath id="clip0_101_857">
<rect width="60.111" height="60.111" fill="white" transform="translate(0.292725 0.293823)"/>
</clipPath>
</defs>
</svg>
