<svg width="17" height="17" viewBox="0 0 17 17" xmlns="http://www.w3.org/2000/svg">
<path d="M7.52766 3.34829C7.98508 2.3223 9.46257 2.38681 9.82884 3.44877C10.0571 4.11071 10.7885 4.45176 11.4423 4.20115C12.4913 3.79911 13.4904 4.88947 12.9985 5.89937C12.6918 6.52887 12.9678 7.28719 13.6074 7.57231C14.6334 8.02973 14.5689 9.50722 13.5069 9.87349C12.845 10.1018 12.5039 10.8332 12.7545 11.487C13.1565 12.5359 12.0662 13.535 11.0563 13.0431C10.4268 12.7365 9.66848 13.0125 9.38335 13.652C8.92593 14.678 7.44844 14.6135 7.08218 13.5515C6.85388 12.8896 6.1225 12.5486 5.46868 12.7992C4.41974 13.2012 3.42061 12.1108 3.91254 11.1009C4.21918 10.4714 3.94317 9.71313 3.30364 9.428C2.27765 8.97058 2.34216 7.49309 3.40412 7.12683C4.06606 6.89853 4.40711 6.16715 4.1565 5.51333C3.75446 4.46439 4.84482 3.46526 5.85472 3.95719C6.48422 4.26383 7.24254 3.98782 7.52766 3.34829Z" fill="url(#paint0_radial_101_894)"/>
<path d="M8.18542 9.46137L10.3748 7.27197L10.7116 7.6088L8.18542 10.135L6.66968 8.6193L7.00651 8.28247L8.18542 9.46137Z"/>
<defs>
<radialGradient id="paint0_radial_101_894" cx="0" cy="0" r="1" gradientUnits="userSpaceOnUse" gradientTransform="translate(0.441204 8.05998) rotate(2.5) scale(16.0518 10.2155)">
<stop stop-color="#00997B"/>
<stop offset="1" stop-color="#24B47E"/>
</radialGradient>
</defs>
</svg>
