<svg width="27" height="27" viewBox="0 0 27 27" xmlns="http://www.w3.org/2000/svg">
<g id="Icons">
<path id="Vector" d="M20.2294 18.4517L24.8265 23.0488L23.3085 24.5668L18.7114 19.9698C17.0584 21.2922 14.9622 22.0833 12.6822 22.0833C7.34954 22.0833 3.02155 17.7553 3.02155 12.4226C3.02155 7.08989 7.34954 2.7619 12.6822 2.7619C18.0149 2.7619 22.3429 7.08989 22.3429 12.4226C22.3429 14.7025 21.5518 16.7988 20.2294 18.4517ZM18.0758 17.6553C19.3884 16.3026 20.1961 14.4574 20.1961 12.4226C20.1961 8.27118 16.8337 4.90872 12.6822 4.90872C8.53083 4.90872 5.16837 8.27118 5.16837 12.4226C5.16837 16.574 8.53083 19.9365 12.6822 19.9365C14.717 19.9365 16.5622 19.1287 17.9149 17.8162L18.0758 17.6553Z"/>
</g>
</svg>
