<svg width="31" height="31" viewBox="0 0 31 31" xmlns="http://www.w3.org/2000/svg">
<path d="M19.0048 10.1378H27.115C28.5147 10.1378 29.6493 11.2725 29.6493 12.6721V15.3388C29.6493 15.6698 29.5845 15.9976 29.4585 16.3037L25.5374 25.8264C25.3418 26.3012 24.8791 26.6111 24.3656 26.6111H3.03866C2.33882 26.6111 1.77148 26.0438 1.77148 25.3439V12.6721C1.77148 11.9723 2.33882 11.405 3.03866 11.405H7.45076C7.86251 11.405 8.24856 11.2049 8.48601 10.8686L15.3964 1.07882C15.577 0.823013 15.9173 0.737468 16.1974 0.877498L18.4962 2.02686C19.8287 2.69318 20.5169 4.19805 20.1495 5.64191L19.0048 10.1378ZM9.37454 13.4166V24.0767H23.517L27.115 15.3388V12.6721H19.0048C17.3515 12.6721 16.141 11.1148 16.5488 9.51257L17.6934 5.01667C17.7669 4.7279 17.6293 4.42692 17.3627 4.29366L16.525 3.87477L10.5565 12.3301C10.2398 12.7787 9.83504 13.1464 9.37454 13.4166ZM6.84019 13.9393H4.30584V24.0767H6.84019V13.9393Z"/>
</svg>
